<svg version="1" xmlns="http://www.w3.org/2000/svg" width="266.667" height="266.667" viewBox="0 0 200.000000 200.000000"><path d="M.6 13.7c-.2.3 1.6 3.9 4.1 8.1 2.5 4.3 6 10.2 7.8 13.2 1.8 3 4.3 7.3 5.5 9.4 1.2 2.2 12.1 21.1 24.3 42 12.1 21 22.6 39 23.2 40.1.5 1.1 1.8 3.1 2.6 4.5 1.9 3 28.8 49.5 30.5 52.8 1.4 2.8-2.7 9.5 39.5-63.3 17.2-29.7 35-60.5 39.7-68.5 4.6-8 9.8-17 11.5-20 1.7-3 4-7.1 5.2-9 1.2-1.9 2.9-4.9 3.8-6.6l1.6-3.2H123.2l-11.3 19.4C105.7 43.3 100.4 52 100 52c-.3 0-5.7-8.7-11.9-19.4L76.9 13.2H39c-20.9 0-38.1.3-38.4.5z"/></svg>